<?xml version="1.0" encoding="UTF-8"?>
<svg id="_2" data-name="2" xmlns="http://www.w3.org/2000/svg" xmlns:xlink="http://www.w3.org/1999/xlink" viewBox="0 0 1280 1280">
  <defs>
    <style>
      .cls-1 {
        fill: #9899ee;
      }

      .cls-2 {
        fill: url(#_未命名的渐变_90);
      }

      .cls-3 {
        fill: #f9f9f9;
      }

      .cls-4 {
        clip-path: url(#clippath);
      }

      .cls-5 {
        fill: none;
      }
    </style>
    <clipPath id="clippath">
      <circle id="_200w" data-name="200w" class="cls-5" cx="640" cy="640" r="640"/>
    </clipPath>
    <linearGradient id="_未命名的渐变_90" data-name="未命名的渐变 90" x1="674.26" y1="989.94" x2="909.55" y2="1125.78" gradientUnits="userSpaceOnUse">
      <stop offset=".1" stop-color="#fff" stop-opacity="0"/>
      <stop offset="1" stop-color="#fff" stop-opacity=".2"/>
    </linearGradient>
  </defs>
  <g id="circle">
    <g class="cls-4">
      <rect id="background" class="cls-1" width="1280" height="1280"/>
      <polygon id="shadow" class="cls-2" points="1051.88 843.16 820.51 1280 544.8 1280 773.19 818.58 1051.88 843.16"/>
      <g id="shape">
        <path class="cls-3" d="M528,1086.01c-4.51,0-9.09-1.02-13.39-3.17-14.82-7.41-20.83-25.43-13.42-40.25L805.19,434.58c5.08-10.16,15.47-16.58,26.83-16.58s21.75,6.42,26.83,16.58l191.75,383.49c3.91,7.81,4.54,16.97,1.27,25.08-4.66,11.55-15.75,18.84-27.85,18.84h-159.35c-.42,0-.83,0-1.25,0h-62.84c-8.74,0-17.21-3.53-23-10.08-8.25-9.33-9.81-22.52-4.4-33.34l31.74-63.48c4.35-8.71,12.48-15.09,22.09-16.69,13.24-2.2,26.02,4.53,31.84,16.17l20.94,41.89c1.69,3.39,5.16,5.53,8.95,5.53h70.55c7.44,0,12.27-7.83,8.95-14.48l-127.27-254.55c-3.69-7.37-14.21-7.37-17.89,0l-268.22,536.44c-5.26,10.51-15.85,16.59-26.86,16.59Z"/>
        <path class="cls-3" d="M256,862.01c-4.51,0-9.09-1.02-13.39-3.17-14.82-7.41-20.83-25.43-13.42-40.25l192-384c5.81-11.62,18.45-18.18,31.29-16.25,12.85,1.93,22.99,11.92,25.13,24.73l43.78,262.66c1.59,9.56,14.48,11.49,18.81,2.83l248.99-497.97c7.41-14.82,25.43-20.83,40.25-13.42,14.82,7.41,20.83,25.43,13.42,40.25l-304,608c-5.81,11.62-18.44,18.19-31.29,16.25-12.85-1.93-22.99-11.92-25.13-24.73l-43.78-262.66c-1.59-9.56-14.48-11.49-18.81-2.83l-136.99,273.97c-5.26,10.51-15.85,16.59-26.86,16.59Z"/>
      </g>
      <g id="star">
        <path class="cls-3" d="M286.02,193.99c0,44.18-26.86,80-60,80,33.14,0,60,35.82,60,80,0-44.18,26.86-80,60-80-33.14,0-60-35.82-60-80Z"/>
      </g>
    </g>
  </g>
</svg>